<?xml version="1.0" encoding="UTF-8" standalone="no"?>
<!-- Creator: CorelDRAW 2019 (64-Bit) -->

<svg
   xml:space="preserve"
   width="101.551mm"
   height="41.918678mm"
   version="1.1"
   style="clip-rule:evenodd;fill-rule:evenodd;image-rendering:optimizeQuality;shape-rendering:geometricPrecision;text-rendering:geometricPrecision"
   viewBox="0 0 10155.1 4191.8678"
   id="svg26"
   sodipodi:docname="logo 1.svg"
   inkscape:version="1.1.1 (3bf5ae0d25, 2021-09-20)"
   xmlns:inkscape="http://www.inkscape.org/namespaces/inkscape"
   xmlns:sodipodi="http://sodipodi.sourceforge.net/DTD/sodipodi-0.dtd"
   xmlns="http://www.w3.org/2000/svg"
   xmlns:svg="http://www.w3.org/2000/svg"><sodipodi:namedview
   id="namedview28"
   pagecolor="#ffffff"
   bordercolor="#666666"
   borderopacity="1.0"
   inkscape:pageshadow="2"
   inkscape:pageopacity="0.0"
   inkscape:pagecheckerboard="0"
   inkscape:document-units="mm"
   showgrid="false"
   units="mm"
   inkscape:snap-center="false"
   inkscape:snap-object-midpoints="false"
   width="97.551mm"
   inkscape:zoom="0.86808532"
   inkscape:cx="213.11269"
   inkscape:cy="90.4289"
   inkscape:window-width="1920"
   inkscape:window-height="1019"
   inkscape:window-x="0"
   inkscape:window-y="0"
   inkscape:window-maximized="1"
   inkscape:current-layer="Слой_x0020_1" />
 <defs
   id="defs4">
  <style
   type="text/css"
   id="style2">
   <![CDATA[
    .fil1 {fill:#9D70D8}
    .fil0 {fill:black;fill-rule:nonzero}
   ]]>
  </style>
 </defs>
 <g
   id="Слой_x0020_1"
   inkscape:label="Слой 1"
   inkscape:groupmode="layer"
   transform="translate(-9217.7033,-8099.1755)">
  <metadata
   id="CorelCorpID_0Corel-Layer" />
  <g
   id="_1912915118144"
   transform="translate(4819.827,-309.62165)">
   <path
   class="fil0"
   d="m 12828.46,11339.41 v -260.79 l -188.14,-357.07 h 74.39 l 147.11,285.43 147.63,-285.43 h 74.7 l -188.13,357.07 v 260.79 z m -474.47,0 v -558.91 h -180.43 v -58.95 h 431 v 58.95 h -180.43 v 558.91 z m -355.89,0 v -617.86 h 69.26 v 617.86 z m -537.05,-154.67 64.86,-21.37 c 11.26,39.44 30.26,70.63 57.3,93.29 26.95,22.6 58.15,34.04 93.49,34.04 39.19,0 70.53,-9.88 93.93,-29.49 23.32,-19.54 35.06,-45.72 35.06,-78.19 0,-19.22 -3.4,-35.92 -10.4,-50.13 -6.95,-14.11 -17.35,-26.01 -31.36,-35.47 -19.89,-13.45 -54.77,-28.87 -104.04,-46.72 -17.54,-6.34 -30.82,-11.25 -39.63,-14.67 -52.16,-20.2 -88.84,-42.7 -110.19,-67.23 -21.26,-24.46 -31.91,-55.25 -31.91,-92.58 0,-49.85 16.51,-89.78 49.45,-119.78 33.03,-30.08 76.97,-45.16 131.86,-45.16 47.73,0 88.39,12.95 121.71,38.89 33.22,25.88 57,63.37 71.54,112.38 l -61.57,17.94 c -10.11,-36.46 -26.95,-64.25 -50.61,-83.32 -23.63,-19.07 -53.02,-28.63 -88.07,-28.63 -33.07,0 -59.47,9.09 -79.09,27.35 -19.56,18.19 -29.38,42.72 -29.38,73.64 0,14.53 3.31,27.92 9.85,40.16 6.54,12.23 16.61,24.05 30.64,35.04 13.58,10.63 45.14,25.09 94.78,43.02 15.74,5.68 28.08,10.01 36.62,13.25 58.71,22.22 99.34,46.61 121.87,73.05 22.47,26.37 33.78,61.25 33.78,104.7 0,51.42 -17.52,92.78 -52.45,124.06 -34.88,31.21 -81.24,46.86 -139.25,46.86 -55.31,0 -101.52,-13.94 -138.25,-41.74 -36.64,-27.72 -63.57,-68.78 -80.54,-123.19 z m -505.25,154.67 v -617.86 h 173.59 c 86.52,0 149.32,13.04 188.43,39.01 39.13,26 58.73,67.38 58.73,124.06 0,40.46 -10.75,73.77 -31.93,100.13 -21.26,26.45 -53.3,45.88 -96.21,58.12 l 145.23,296.54 h -75.11 l -136.12,-280.31 h -159.05 v 280.31 z m 173.59,-560.62 h -106.03 v 223.05 h 103.46 c 63.87,0 109.79,-8.8 138.12,-26.34 28.23,-17.48 42.32,-45.72 42.32,-84.75 0,-41.45 -12.51,-70.56 -37.76,-87.17 -25.18,-16.56 -71.86,-24.79 -140.11,-24.79 z m -661.75,560.62 v -617.86 h 365.15 v 58.11 h -296.75 v 206.8 h 210.38 v 57.26 h -210.38 v 236.72 h 296.75 v 58.97 z m -366.18,0 -208.37,-617.86 h 70.14 l 166.6,500.65 h 4.98 l 167.92,-500.65 h 69.27 l -210.38,617.86 z m -377.83,0 v -617.86 h 69.26 v 617.86 z m -615.59,0 v -617.86 h 97.36 l 284.06,481.84 v -481.84 h 64.12 v 617.86 h -53.02 l -328.37,-546.93 v 546.93 z m -609.73,-617.86 h 67.56 v 398.51 c 0,27.75 1.21,48.75 3.7,62.81 2.46,13.97 6.79,26.62 12.55,37.75 11.45,22.17 29.22,39.46 53.44,51.71 24.23,12.25 52.6,18.37 85.1,18.37 33.05,0 61.7,-6.12 85.94,-18.37 24.22,-12.25 42.13,-29.46 53.45,-51.71 5.9,-11.63 10.08,-24.92 12.54,-39.44 2.49,-14.66 3.71,-38.75 3.71,-72.37 v -387.26 h 67.55 v 409.34 c 0,71.33 -19.01,125.74 -57.01,162.95 -37.93,37.12 -93.49,55.83 -166.32,55.83 -73.27,0 -128.55,-18.42 -166.05,-55.27 -37.45,-36.76 -56.16,-91.3 -56.16,-163.51 z"
   id="path7" />
   <path
   class="fil0"
   d="m 13728.17,10285.96 -340.7,-1165.78 h 215.03 l 260.21,951.17 257.35,-951.17 h 215.79 l -339.9,1165.78 z M 12388.7,9705.47 c 0,-188.41 41.79,-335.39 125.4,-441.24 83.87,-105.57 199.59,-158.47 347.72,-158.47 147.88,0 263.89,52.9 347.74,158.47 83.87,105.85 125.92,252.83 125.92,441.24 0,187.36 -42.05,334.08 -126.18,440.44 -84.38,106.1 -200.12,159.29 -347.48,159.29 -147.07,0 -262.55,-53.19 -346.94,-159.29 -84.13,-106.36 -126.18,-253.08 -126.18,-440.44 z m 217.89,0.27 c 0,132.03 21.68,231.99 65.05,300.14 43.37,68.14 106.86,102.08 190.45,102.08 83.61,0 147.09,-33.94 190.45,-102.08 43.38,-68.15 65.06,-168.11 65.06,-300.14 0,-132.82 -21.68,-233.85 -65.06,-302.8 -43.36,-68.68 -106.84,-103.17 -190.45,-103.17 -83.59,0 -147.08,34.49 -190.45,103.17 -43.37,68.95 -65.05,169.98 -65.05,302.8 z m -1109.57,580.22 v -192.43 l 552.04,-784.12 h -514.41 v -189.23 h 752.42 v 183.34 l -559.62,790.01 h 567.45 v 192.43 z m -888.08,0 V 9120.18 h 739.88 v 189.23 h -526.7 v 275.8 h 384.04 v 186.01 h -384.04 v 315.9 h 526.7 v 198.84 z M 9539.43,9857.54 v -737.36 h 214.74 v 746.72 c 0,86.59 16.99,149.4 51.21,187.88 34.22,38.75 89.36,57.99 165.12,57.99 80.73,0 138.21,-18.7 172.42,-55.85 34.49,-37.41 51.74,-100.76 51.74,-190.02 v -746.72 h 208.48 v 772.65 c 0,132.55 -37.36,234.38 -112.08,305.46 -74.97,71.37 -181.58,106.91 -320.56,106.91 -145,0 -253.15,-36.88 -324.23,-110.65 -71.32,-74.03 -106.84,-186.27 -106.84,-337.01 z m -1041.12,428.42 343.82,-1165.78 h 267.77 l 343.05,1165.78 H 9238.71 L 9168.17,10031 h -393.46 l -72.88,254.96 z m 327.62,-440.97 h 290.25 l -145.51,-521.43 z"
   id="path9" />
   <path
   class="fil0"
   d="m 9412.35,12019.32 33.33,-22.23 c 11.77,20.69 26.3,36.33 43.59,46.95 17.18,10.55 36.62,15.88 58.38,15.88 27,0 48.08,-6.6 63.28,-19.74 15.23,-13.17 22.8,-31.5 22.8,-55.04 0,-26.17 -9.48,-45.99 -28.34,-59.47 -18.81,-13.45 -46.69,-20.26 -83.6,-20.26 -5.25,0 -10.16,0.11 -14.7,0.26 -4.62,0.15 -9.44,0.42 -14.52,0.77 v -35.54 c 1.42,0 3.48,0.13 6.23,0.26 11.21,0.52 18.71,0.77 22.54,0.77 32.89,0 58.08,-6.06 75.32,-18.2 17.21,-12.12 25.85,-29.87 25.85,-52.96 0,-18.11 -6.41,-32.49 -19.17,-42.93 -12.79,-10.47 -30.29,-15.71 -52.4,-15.71 -18.1,0 -34.36,4.09 -48.66,12.28 -14.29,8.17 -27.82,21.28 -40.73,39.23 l -30.49,-22.15 c 16.03,-21.11 34.05,-36.77 54.01,-46.95 20.03,-10.22 42.51,-15.36 67.39,-15.36 33.78,0 60.67,8.21 80.65,24.54 20,16.35 30.04,38.2 30.04,65.5 0,20.6 -4.98,38.4 -14.98,53.13 -9.93,14.68 -24.77,26.02 -44.21,33.92 23.44,8.75 41.31,21.19 53.39,37.34 12.05,16.11 18.1,35.45 18.1,57.94 0,33.99 -11.4,61.16 -34.13,81.46 -22.69,20.27 -53.39,30.39 -92.09,30.39 -30.48,0 -57.2,-6.28 -80.29,-18.72 -23.09,-12.44 -41.98,-30.9 -56.59,-55.36 z m -144.39,-52.11 v -217.69 l -131.55,217.69 z m 37.96,-251.86 v 251.86 h 63.64 v 31.94 h -63.64 v 94.25 h -37.96 v -94.25 h -173.81 v -26.44 l 156.69,-257.36 z m -306.42,187.57 c -14.08,15.97 -29.51,27.93 -46.07,35.88 -16.64,7.98 -34.51,11.93 -53.48,11.93 -36.01,0 -64.84,-11.07 -86.36,-33.21 -21.5,-22.12 -32.27,-51.94 -32.27,-89.28 0,-34.77 11.79,-63.2 35.39,-85.34 23.6,-22.13 54.01,-33.21 91.35,-33.21 44.39,0 77.97,14.64 100.71,43.78 22.69,29.1 34.05,72.19 34.05,129.19 0,64.9 -14.11,116.22 -42.34,154 -28.25,37.82 -66.4,56.74 -114.43,56.74 -17.65,0 -33.62,-1.94 -47.87,-5.66 -14.23,-3.71 -26.83,-9.19 -37.61,-16.32 l 17.2,-32.1 c 9.9,6.61 20.59,11.56 32.09,14.76 11.47,3.21 23.97,4.82 37.34,4.82 34.32,0 61.67,-13.98 81.92,-41.99 20.27,-28.01 30.38,-66.01 30.38,-113.99 z m 0.54,-55.62 c -1.25,-32.37 -10.11,-57.86 -26.65,-76.57 -16.48,-18.68 -38.41,-28.07 -65.76,-28.07 -24.35,0 -44.72,8.2 -60.9,24.63 -16.16,16.43 -24.23,37.08 -24.23,61.89 0,27.05 7.52,48.59 22.55,64.56 15.06,16.01 35.21,24.02 60.51,24.02 19.97,0 38.04,-6.06 54.1,-18.02 16.09,-11.95 29.6,-29.44 40.38,-52.44 z m -389.84,-138.12 v 344.56 h 63.64 v 33.48 h -166.85 v -33.48 h 65.22 v -300.79 l -71.65,7.73 v -25.75 c 15.16,-3.88 29.34,-8 42.53,-12.37 13.17,-4.36 25.21,-8.84 36.19,-13.38 z"
   id="path11" />
   <path
   class="fil1"
   d="m 7749.82,9120.18 c 109.61,286.04 169.73,596.61 169.73,921.23 0,88.62 -4.5,176.2 -13.27,262.51 -153.41,153.21 -365.25,292.7 -617.15,402.03 218.84,-57.74 419.64,-137.72 594.25,-232.67 -44.09,261.14 -127.53,508.88 -243.93,737 -126.91,94.86 -277.06,181.2 -445.06,254.11 132.65,-35 258.61,-78.21 376.18,-127.93 -147.69,253.41 -337.4,479.32 -559.57,668.19 l -385.24,-1326.26 c -19.63,-99.28 -107.18,-174.15 -212.22,-174.15 h -334.88 v 0.73 c -93.53,-0.03 -179.71,61.27 -207.05,155.62 l -388.8,1338.49 c -552.07,-472.39 -902.06,-1174.09 -902.06,-1957.67 0,-312.03 55.52,-611.07 157.16,-887.84 -13.54,71.08 -13.17,141.93 2.82,211.22 108.95,471.79 895.54,693.06 1756.91,494.2 577.13,-133.26 1041.37,-421.31 1252.18,-738.81 z m -1731.2,2579.87 233.29,-763.12 221.66,763.12 z m 601.51,-2545.88 c 11.92,-34.2 18.39,-70.76 18.39,-108.78 -0.01,-190.36 -161.84,-344.69 -361.45,-344.7 -3.19,0 -6.37,0.04 -9.54,0.12 h -239.28 v 0.04 c -153.18,-124.45 -405.28,-174.57 -667.63,-114 -240.4,55.5 -432.35,190.76 -526.74,350.73 -78.18,132.58 -90.47,280.81 -32.44,424.38 122.1,301.86 533.22,485.33 1047.49,495.29 l 0.08,-0.08 c -28.49,-134.01 28.97,-325.06 161.42,-494.6 184.79,-236.52 445.55,-341.56 582.44,-234.64 10.03,7.85 19.1,16.64 27.26,26.24 z m 18.51,3114.17 c -123.34,71.89 -253.21,133.85 -388.5,184.72 -137.81,-51.83 -270.03,-115.11 -395.43,-188.74 l 49.65,-170.92 h 683.47 z"
   id="path13" />
  </g>
  <g
   id="_1912915116352"
   transform="translate(14413.625,-921.2759)">
   <path
   class="fil0"
   d="m 24236.66,13767.48 v -260.79 l -188.15,-357.08 h 74.4 l 147.11,285.43 147.63,-285.43 h 74.7 l -188.13,357.08 v 260.79 z m -474.47,0 v -558.91 h -180.43 v -58.96 h 430.99 v 58.96 h -180.43 v 558.91 z m -355.89,0 v -617.87 h 69.26 v 617.87 z m -537.05,-154.67 64.86,-21.37 c 11.25,39.44 30.26,70.62 57.3,93.28 26.95,22.61 58.14,34.05 93.48,34.05 39.2,0 70.53,-9.89 93.94,-29.49 23.31,-19.54 35.06,-45.72 35.06,-78.19 0,-19.23 -3.4,-35.93 -10.4,-50.14 -6.96,-14.1 -17.36,-26 -31.37,-35.46 -19.89,-13.45 -54.76,-28.88 -104.03,-46.72 -17.54,-6.34 -30.82,-11.26 -39.63,-14.67 -52.16,-20.2 -88.85,-42.71 -110.19,-67.24 -21.26,-24.45 -31.92,-55.25 -31.92,-92.58 0,-49.85 16.52,-89.77 49.46,-119.78 33.02,-30.08 76.96,-45.15 131.85,-45.15 47.73,0 88.39,12.95 121.72,38.89 33.21,25.87 57,63.37 71.54,112.37 l -61.57,17.95 c -10.11,-36.47 -26.95,-64.25 -50.61,-83.33 -23.63,-19.06 -53.02,-28.62 -88.07,-28.62 -33.08,0 -59.48,9.09 -79.1,27.35 -19.55,18.18 -29.37,42.72 -29.37,73.63 0,14.54 3.31,27.93 9.85,40.16 6.54,12.24 16.61,24.06 30.63,35.05 13.59,10.63 45.14,25.08 94.79,43.01 15.74,5.68 28.08,10.02 36.62,13.25 58.71,22.23 99.34,46.61 121.86,73.06 22.48,26.37 33.79,61.24 33.79,104.7 0,51.41 -17.52,92.77 -52.46,124.05 -34.88,31.22 -81.23,46.86 -139.24,46.86 -55.31,0 -101.52,-13.94 -138.25,-41.73 -36.65,-27.72 -63.58,-68.79 -80.54,-123.19 z m -505.25,154.67 v -617.87 h 173.59 c 86.51,0 149.32,13.05 188.43,39.01 39.12,26 58.73,67.39 58.73,124.06 0,40.47 -10.75,73.78 -31.94,100.13 -21.26,26.46 -53.3,45.88 -96.21,58.12 l 145.24,296.55 h -75.12 l -136.11,-280.31 h -159.05 v 280.31 z m 173.59,-560.62 h -106.03 v 223.05 h 103.46 c 63.87,0 109.78,-8.81 138.12,-26.34 28.22,-17.49 42.32,-45.72 42.32,-84.76 0,-41.44 -12.52,-70.55 -37.77,-87.16 -25.18,-16.56 -71.85,-24.79 -140.1,-24.79 z m -661.76,560.62 v -617.87 h 365.16 v 58.11 h -296.75 v 206.81 h 210.37 v 57.25 h -210.37 v 236.73 h 296.75 v 58.97 z m -366.17,0 -208.37,-617.87 h 70.13 l 166.61,500.65 h 4.98 l 167.92,-500.65 h 69.26 l -210.38,617.87 z m -377.83,0 v -617.87 h 69.26 v 617.87 z m -615.59,0 v -617.87 h 97.35 l 284.06,481.84 v -481.84 h 64.13 v 617.87 h -53.02 l -328.38,-546.94 v 546.94 z m -609.74,-617.87 h 67.56 v 398.51 c 0,27.76 1.22,48.75 3.71,62.82 2.46,13.96 6.79,26.62 12.55,37.75 11.45,22.17 29.22,39.45 53.44,51.71 24.23,12.25 52.6,18.37 85.09,18.37 33.06,0 61.71,-6.12 85.95,-18.37 24.22,-12.26 42.12,-29.46 53.44,-51.71 5.91,-11.63 10.08,-24.92 12.54,-39.45 2.5,-14.65 3.71,-38.74 3.71,-72.36 v -387.27 h 67.55 v 409.35 c 0,71.32 -19,125.74 -57.01,162.94 -37.93,37.12 -93.48,55.83 -166.32,55.83 -73.27,0 -128.54,-18.42 -166.04,-55.27 -37.45,-36.76 -56.17,-91.3 -56.17,-163.5 z"
   id="path16" />
   <path
   class="fil0"
   d="m 24510.52,12714.02 -340.7,-1165.77 h 215.03 l 260.21,951.17 257.35,-951.17 h 215.79 l -339.9,1165.77 z m -1339.47,-580.48 c 0,-188.41 41.79,-335.4 125.4,-441.24 83.87,-105.57 199.6,-158.48 347.72,-158.48 147.88,0 263.89,52.91 347.74,158.48 83.87,105.84 125.93,252.83 125.93,441.24 0,187.36 -42.06,334.08 -126.19,440.44 -84.38,106.1 -200.12,159.29 -347.48,159.29 -147.07,0 -262.55,-53.19 -346.94,-159.29 -84.13,-106.36 -126.18,-253.08 -126.18,-440.44 z m 217.89,0.27 c 0,132.03 21.68,231.98 65.05,300.13 43.37,68.15 106.86,102.09 190.45,102.09 83.61,0 147.09,-33.94 190.45,-102.09 43.38,-68.15 65.06,-168.1 65.06,-300.13 0,-132.83 -21.68,-233.85 -65.06,-302.8 -43.36,-68.69 -106.84,-103.17 -190.45,-103.17 -83.59,0 -147.08,34.48 -190.45,103.17 -43.37,68.95 -65.05,169.97 -65.05,302.8 z m -1109.57,580.21 v -192.42 l 552.04,-784.13 H 22317 v -189.22 h 752.42 v 183.33 l -559.62,790.02 h 567.46 v 192.42 z m -888.08,0 v -1165.77 h 739.88 v 189.22 h -526.7 v 275.81 h 384.04 v 186.01 h -384.04 v 315.9 h 526.7 v 198.83 z m -1069.51,-428.41 v -737.36 h 214.74 v 746.72 c 0,86.59 16.99,149.39 51.21,187.87 34.22,38.76 89.36,58 165.12,58 80.73,0 138.21,-18.7 172.42,-55.86 34.5,-37.41 51.74,-100.75 51.74,-190.01 v -746.72 h 208.48 v 772.65 c 0,132.55 -37.36,234.37 -112.08,305.45 -74.97,71.37 -181.58,106.92 -320.56,106.92 -145,0 -253.15,-36.88 -324.23,-110.65 -71.32,-74.03 -106.84,-186.27 -106.84,-337.01 z m -1041.12,428.41 343.82,-1165.77 h 267.77 l 343.05,1165.77 h -214.24 l -70.54,-254.96 h -393.46 l -72.88,254.96 z m 327.62,-440.97 h 290.25 l -145.51,-521.42 z"
   id="path18" />
   <path
   class="fil0"
   d="m 22523.77,14447.39 33.33,-22.24 c 11.77,20.69 26.3,36.33 43.59,46.96 17.18,10.55 36.62,15.88 58.38,15.88 27,0 48.08,-6.6 63.28,-19.75 15.23,-13.17 22.81,-31.5 22.81,-55.03 0,-26.17 -9.49,-45.99 -28.34,-59.47 -18.81,-13.45 -46.69,-20.27 -83.61,-20.27 -5.25,0 -10.15,0.11 -14.7,0.27 -4.62,0.15 -9.44,0.42 -14.52,0.77 v -35.54 c 1.42,0 3.49,0.12 6.23,0.25 11.21,0.53 18.72,0.78 22.55,0.78 32.88,0 58.07,-6.07 75.31,-18.2 17.22,-12.13 25.86,-29.87 25.86,-52.97 0,-18.11 -6.42,-32.48 -19.17,-42.92 -12.8,-10.48 -30.3,-15.71 -52.41,-15.71 -18.1,0 -34.36,4.09 -48.66,12.28 -14.29,8.17 -27.82,21.28 -40.73,39.23 l -30.48,-22.15 c 16.03,-21.12 34.04,-36.77 54.01,-46.96 20.03,-10.21 42.51,-15.36 67.38,-15.36 33.78,0 60.67,8.21 80.66,24.55 19.99,16.34 30.04,38.19 30.04,65.49 0,20.61 -4.99,38.41 -14.98,53.14 -9.94,14.68 -24.77,26.01 -44.21,33.91 23.43,8.75 41.3,21.2 53.39,37.35 12.04,16.1 18.09,35.44 18.09,57.93 0,34 -11.39,61.16 -34.13,81.46 -22.69,20.27 -53.39,30.4 -92.08,30.4 -30.48,0 -57.21,-6.28 -80.3,-18.72 -23.08,-12.44 -41.97,-30.9 -56.59,-55.36 z m -144.39,-52.11 v -217.69 l -131.55,217.69 z m 37.96,-251.86 v 251.86 h 63.64 v 31.93 h -63.64 v 94.26 h -37.96 v -94.26 h -173.81 v -26.43 l 156.7,-257.36 z m -306.41,187.56 c -14.09,15.98 -29.52,27.94 -46.08,35.89 -16.64,7.97 -34.51,11.93 -53.48,11.93 -36.01,0 -64.84,-11.07 -86.36,-33.21 -21.5,-22.12 -32.27,-51.94 -32.27,-89.29 0,-34.77 11.79,-63.19 35.39,-85.33 23.61,-22.13 54.01,-33.22 91.36,-33.22 44.38,0 77.97,14.64 100.7,43.78 22.7,29.1 34.06,72.2 34.06,129.2 0,64.9 -14.12,116.22 -42.34,153.99 -28.26,37.82 -66.4,56.75 -114.44,56.75 -17.65,0 -33.61,-1.95 -47.87,-5.66 -14.23,-3.72 -26.82,-9.2 -37.61,-16.32 l 17.21,-32.1 c 9.89,6.6 20.58,11.56 32.09,14.76 11.46,3.21 23.96,4.81 37.33,4.81 34.32,0 61.67,-13.98 81.92,-41.98 20.27,-28.02 30.39,-66.01 30.39,-114 z m 0.53,-55.62 c -1.25,-32.37 -10.11,-57.85 -26.65,-76.57 -16.48,-18.68 -38.41,-28.07 -65.76,-28.07 -24.34,0 -44.72,8.2 -60.89,24.63 -16.17,16.44 -24.23,37.09 -24.23,61.89 0,27.05 7.51,48.59 22.54,64.57 15.06,16 35.21,24.02 60.51,24.02 19.97,0 38.05,-6.06 54.1,-18.02 16.1,-11.96 29.6,-29.44 40.38,-52.45 z m -389.84,-138.12 v 344.57 h 63.64 v 33.47 h -166.85 v -33.47 h 65.23 v -300.79 l -71.66,7.72 v -25.75 c 15.17,-3.87 29.34,-7.99 42.53,-12.36 13.17,-4.37 25.22,-8.84 36.19,-13.39 z"
   id="path20" />
   <path
   class="fil1"
   d="m 23699.1,7051.77 c 109.61,286.05 169.73,596.61 169.73,921.23 0,88.62 -4.5,176.2 -13.28,262.51 -153.4,153.22 -365.24,292.7 -617.14,402.04 218.84,-57.74 419.64,-137.73 594.24,-232.68 -44.08,261.14 -127.52,508.89 -243.92,737.01 -126.92,94.85 -277.07,181.19 -445.06,254.11 132.65,-35.01 258.61,-78.21 376.18,-127.93 -146.98,252.17 -335.56,477.12 -556.33,665.42 l -384.43,-1323.5 c -19.63,-99.27 -107.18,-174.14 -212.22,-174.14 h -4.05 -330.83 -4.05 v 0.73 c -93.54,-0.04 -179.71,61.27 -207.05,155.61 l -388.8,1338.49 c -552.07,-472.39 -902.06,-1174.08 -902.06,-1957.67 0,-312.02 55.51,-611.07 157.16,-887.83 -13.54,71.08 -13.17,141.92 2.82,211.21 108.94,471.79 895.54,693.06 1756.91,494.21 577.13,-133.26 1041.37,-421.32 1252.18,-738.82 z m -1731.2,2579.87 225.72,-763.11 h 7.56 l 144.34,496.91 81.38,266.2 h -4.05 -450.9 z m 601.51,-2545.87 c 11.92,-34.2 18.39,-70.77 18.39,-108.78 -0.01,-190.37 -161.84,-344.7 -361.45,-344.71 -3.19,0 -6.37,0.04 -9.54,0.12 h -239.28 v 0.05 c -153.18,-124.46 -405.28,-174.57 -667.63,-114 -240.4,55.5 -432.35,190.76 -526.74,350.73 -78.19,132.57 -90.47,280.81 -32.45,424.38 122.11,301.86 533.23,485.33 1047.5,495.28 l 0.08,-0.07 c -28.49,-134.02 28.96,-325.07 161.41,-494.6 184.8,-236.52 445.56,-341.56 582.44,-234.64 10.04,7.84 19.11,16.63 27.27,26.24 z m 18.51,3114.16 c -123.35,71.89 -253.21,133.85 -388.5,184.73 -136.54,-51.35 -267.6,-113.95 -391.97,-186.71 l 50.24,-172.95 h 679.42 z"
   id="path22" />
  </g>
 </g>
</svg>
